<svg width="50" height="50" viewBox="0 0 50 50" fill="none" xmlns="http://www.w3.org/2000/svg">
<path d="M36.5832 11.4167C36.5832 9.125 34.7082 7.25 32.4165 7.25H26.1665V11.4167H32.4165V16.9375L25.1248 26H17.8332V15.5833H9.49984C4.89567 15.5833 1.1665 19.3125 1.1665 23.9167V30.1667H5.33317C5.33317 33.625 8.12484 36.4167 11.5832 36.4167C15.0415 36.4167 17.8332 33.625 17.8332 30.1667H27.2082L36.5832 18.3958V11.4167ZM11.5832 32.25C10.4373 32.25 9.49984 31.3125 9.49984 30.1667H13.6665C13.6665 31.3125 12.729 32.25 11.5832 32.25ZM7.4165 9.33333H17.8332V13.5H7.4165V9.33333ZM36.5832 23.9167C33.1248 23.9167 30.3332 26.7083 30.3332 30.1667C30.3332 33.625 33.1248 36.4167 36.5832 36.4167C40.0415 36.4167 42.8332 33.625 42.8332 30.1667C42.8332 26.7083 40.0415 23.9167 36.5832 23.9167ZM36.5832 32.25C35.4373 32.25 34.4998 31.3125 34.4998 30.1667C34.4998 29.0208 35.4373 28.0833 36.5832 28.0833C37.729 28.0833 38.6665 29.0208 38.6665 30.1667C38.6665 31.3125 37.729 32.25 36.5832 32.25ZM11.5832 42.6667H19.9165V38.5L32.4165 44.75H24.0832V48.9167L11.5832 42.6667Z" fill="#F24E1E"/>
</svg>
