<svg width="20" height="16" viewBox="0 0 20 16" fill="none" xmlns="http://www.w3.org/2000/svg">
<path d="M19.96 5.73L18.53 0.73C18.4718 0.520086 18.3464 0.335031 18.173 0.203182C17.9996 0.071333 17.7878 -3.87152e-05 17.57 1.57551e-08H2.42997C1.97997 1.57551e-08 1.58997 0.3 1.46997 0.73L0.0399671 5.73C-0.140033 6.36 0.339967 7 0.999967 7H3.19997L1.99997 16H3.99997L4.66997 11H15.34L16 16H18L16.8 7H19C19.66 7 20.14 6.36 19.96 5.73ZM4.92997 9L5.19997 7H14.8L15.07 9H4.92997ZM2.32997 5L3.18997 2H16.82L17.68 5H2.32997Z" fill="currentColor" fill-opacity="1.0"/>
</svg>
