<svg width="22" height="19" viewBox="0 0 22 19" fill="none" xmlns="http://www.w3.org/2000/svg">
<path d="M10.2929 3.25711L11 3.96421L11.7071 3.25711L12.6071 2.35711C13.4717 1.4925 14.6433 1 15.875 1C17.1028 1 18.2614 1.48852 19.119 2.40732L19.1307 2.41992L19.1429 2.43211C21.0024 4.29158 21.0024 7.25842 19.1429 9.11789L19.1399 9.12088L11 17.3298L2.86011 9.12088L2.86011 9.12088L2.85713 9.11789C0.997655 7.25842 0.997655 4.29158 2.85713 2.43211L2.93213 2.35711C4.71458 0.574653 7.67211 0.574581 9.45604 2.42002L9.46193 2.42612L9.46792 2.43211L10.2929 3.25711Z" stroke="currentColor" stroke-opacity="1" stroke-width="2"/>
</svg>
