<svg width="10" height="10" viewBox="0 0 10 10" fill="none" xmlns="http://www.w3.org/2000/svg">
<path d="M5.56038 0.556368C5.45508 0.343053 5.23782 0.208008 4.99994 0.208008C4.76205 0.208008 4.54479 0.343053 4.43949 0.556368L3.29727 2.87038L0.742878 3.24375C0.507527 3.27815 0.312102 3.44315 0.238741 3.6694C0.16538 3.89566 0.226801 4.14394 0.397187 4.3099L2.24503 6.1097L1.80893 8.65236C1.76871 8.88685 1.86512 9.12384 2.0576 9.26367C2.25009 9.4035 2.50527 9.42192 2.71584 9.31118L4.99994 8.11L7.28403 9.31118C7.4946 9.42192 7.74978 9.4035 7.94227 9.26367C8.13476 9.12384 8.23116 8.88685 8.19094 8.65236L7.75485 6.10969L9.60269 4.3099C9.77307 4.14394 9.83449 3.89566 9.76113 3.6694C9.68777 3.44315 9.49235 3.27815 9.257 3.24375L6.7026 2.87038L5.56038 0.556368Z" fill="currentColor"/>
</svg>
